<svg xmlns="http://www.w3.org/2000/svg" viewBox="0 0 556.55 199.8"><defs><style>.cls-1{fill:#fff;}</style></defs><title>welcome-logo</title><g id="Layer_1-2"><path class="cls-1" d="M195.24 164.95a1.64 1.64 0 0 1-.59 1.09l-8.22 8 1.95 11.33a3.51 3.51 0 0 1 0 .45 1.34 1.34 0 0 1-.24.8.8.8 0 0 1-.69.33 1.83 1.83 0 0 1-.91-.27l-10.17-5.35-10.17 5.35a1.93 1.93 0 0 1-.91.27.82.82 0 0 1-.71-.33 1.33 1.33 0 0 1-.24-.8 3.62 3.62 0 0 1 0-.45l1.95-11.33-8.25-8a1.73 1.73 0 0 1-.57-1.09q0-.84 1.27-1l11.37-1.65 5.1-10.31q.43-.93 1.11-.93t1.11.93l5.1 10.31 11.47 1.6q1.24.21 1.24 1.05zM91.73 55.82h-29.38v76.18h-17.72v-76.18h-29.38v-15.65h76.48zM129 132v-91.83h40.63a26.1 26.1 0 0 1 11.71 2.65 30.34 30.34 0 0 1 9.25 7 33 33 0 0 1 6.08 9.84 29.6 29.6 0 0 1 2.2 11.06 30.55 30.55 0 0 1-4.46 16.24 25.62 25.62 0 0 1-12.1 10.55l21 34.55h-20.09l-18.76-30.8h-17.6v30.74zm17.86-46.46h22.39a9.45 9.45 0 0 0 4.59-1.16 11.73 11.73 0 0 0 3.69-3.17 15.82 15.82 0 0 0 2.47-4.68 18.33 18.33 0 0 0 .91-5.82 16.61 16.61 0 0 0-1-6 15.58 15.58 0 0 0-2.84-4.71 12.62 12.62 0 0 0-4-3.11 10.43 10.43 0 0 0-4.59-1.1h-21.63zM280.14 132.69a41.73 41.73 0 0 1-18.31-3.95 44.93 44.93 0 0 1-14.11-10.48 48.61 48.61 0 0 1-12.36-32.16 46.17 46.17 0 0 1 3.43-17.6 48.57 48.57 0 0 1 9.45-14.88 45.09 45.09 0 0 1 14.3-10.29 42.46 42.46 0 0 1 18-3.82 40.35 40.35 0 0 1 18.18 4.08 45.41 45.41 0 0 1 14 10.68 49.16 49.16 0 0 1 9.06 15 47.27 47.27 0 0 1 3.22 17.09 46.48 46.48 0 0 1-3.36 17.53 47.66 47.66 0 0 1-9.32 14.75 44.8 44.8 0 0 1-14.23 10.22 42.43 42.43 0 0 1-17.95 3.83zm-26.66-46.58a36.93 36.93 0 0 0 1.81 11.52 30.71 30.71 0 0 0 5.24 9.83 26 26 0 0 0 8.41 6.86 26.05 26.05 0 0 0 22.78-.06 26.08 26.08 0 0 0 8.41-7.05 31.44 31.44 0 0 0 5.18-9.9 36.76 36.76 0 0 0 1.75-11.19 35.86 35.86 0 0 0-1.88-11.52 31.79 31.79 0 0 0-5.31-9.83 25.35 25.35 0 0 0-8.4-6.77 26.21 26.21 0 0 0-22.71.13 25.54 25.54 0 0 0-8.41 7 31.37 31.37 0 0 0-5.11 9.83 36.78 36.78 0 0 0-1.76 11.15zM403.85 132.69a41.73 41.73 0 0 1-18.31-3.95 44.94 44.94 0 0 1-14.11-10.48 48.61 48.61 0 0 1-12.36-32.16 46.16 46.16 0 0 1 3.43-17.6 48.58 48.58 0 0 1 9.5-14.88 45.1 45.1 0 0 1 14.3-10.29 42.47 42.47 0 0 1 18-3.82 40.36 40.36 0 0 1 18.18 4.08 45.42 45.42 0 0 1 14 10.68 49.2 49.2 0 0 1 9.06 15 47.3 47.3 0 0 1 3.24 17.08 46.47 46.47 0 0 1-3.37 17.53 47.66 47.66 0 0 1-9.32 14.75 44.81 44.81 0 0 1-14.24 10.22 42.43 42.43 0 0 1-18 3.84zm-26.65-46.58a36.91 36.91 0 0 0 1.8 11.51 30.7 30.7 0 0 0 5.24 9.83 26 26 0 0 0 8.41 6.86 26.05 26.05 0 0 0 22.78-.06 26.07 26.07 0 0 0 8.41-7.05 31.44 31.44 0 0 0 5.16-9.9 36.76 36.76 0 0 0 1.75-11.19 35.86 35.86 0 0 0-1.88-11.52 31.83 31.83 0 0 0-5.31-9.83 25.35 25.35 0 0 0-8.38-6.76 26.21 26.21 0 0 0-22.71.13 25.53 25.53 0 0 0-8.41 7 31.35 31.35 0 0 0-5.11 9.83 36.78 36.78 0 0 0-1.75 11.15zM488.36 132v-91.83h39a26.1 26.1 0 0 1 11.64 2.65 30.33 30.33 0 0 1 9.25 7 33 33 0 0 1 6.08 9.84 29.61 29.61 0 0 1 2.2 11.06 31.92 31.92 0 0 1-2.05 11.28 31.45 31.45 0 0 1-5.82 9.77 28.63 28.63 0 0 1-9.06 6.86 26.19 26.19 0 0 1-11.6 2.62h-21.79v30.75zm17.86-46.46h20.71a10.22 10.22 0 0 0 8.22-4q3.3-4 3.3-10.87a17.9 17.9 0 0 0-1-6.28 15.33 15.33 0 0 0-2.72-4.72 10.83 10.83 0 0 0-3.95-2.91 11.57 11.57 0 0 0-4.59-1h-19.98zM230.93 177.16l.42-3.38c0-.11 0-.16-.08-.16s-.15.07-.29.21q-.69.74-1.74 1.82a28.54 28.54 0 0 1-3.61 2.9 8 8 0 0 1-4.14 1.82 5.84 5.84 0 0 1-.66-.18 2.84 2.84 0 0 1-1-.87 3.15 3.15 0 0 1-.63-2.11q0-1.37 2.08-4.19a41 41 0 0 1 5-5.54 33.39 33.39 0 0 1 6.46-4.72 13.11 13.11 0 0 1 6.2-2q1 .05 1.58 1.42a1.46 1.46 0 0 1 .95-.53 1.56 1.56 0 0 1 1 .63 1.27 1.27 0 0 1 .63.34 1.06 1.06 0 0 1 .32.82 1.7 1.7 0 0 1-.74 1.16q-1.11 1.37-2.58 3.11l-2.11 2.51q-.63.76-1.32 1.71a6.22 6.22 0 0 0-1.27 2.64q5.38-2.58 16.93-11.13a1.1 1.1 0 0 1 .47.9 1.15 1.15 0 0 1-.42.9l-1 .9-2.4 2.06-3.45 2.93q-1.66 1.4-3.8 3.11t-3.83 2.93q-4.06 2.9-5.06 2.9a1.58 1.58 0 0 1-1.42-.63 4.35 4.35 0 0 1-.49-2.28zm-5.38-2.22q.63 0 3.88-2.58t6.15-5.17l3-2.58c.14-.14.21-.24.21-.29s-.05-.08-.16-.08q-2 0-5.22 2.3a35.43 35.43 0 0 0-5.57 4.85q-2.35 2.56-2.35 3.46a.09.09 0 0 0 .06.1zM250 179.85a1.64 1.64 0 0 0 .26.53 6.83 6.83 0 0 1 .74 3.62q0 2.43-2.51 6.3a30.62 30.62 0 0 1-5.8 6.7q-3.3 2.82-5.41 2.82-2.64 0-3.32-4.75 0-6.54 9.55-17.3l28.75-32.55a1.46 1.46 0 0 1 1.58-1.05 4.73 4.73 0 0 1 2.58.47 1.39 1.39 0 0 1 .63 1.13 3.62 3.62 0 0 1-1.11 1.93l-25.75 28.12a.62.62 0 0 0 .34.05 1.36 1.36 0 0 0 .61-.16 154.3 154.3 0 0 0 19.2-12.24 1.1 1.1 0 0 1 .48.9 1.38 1.38 0 0 1-.5 1l-1.4 1.35q-.9.87-3.48 3.17t-5 4.17a50 50 0 0 1-5.35 3.61 18.25 18.25 0 0 1-5.09 2.18zm-12.4 15.3q1.37 0 4.12-2.69a36.61 36.61 0 0 0 5-6.07q2.22-3.38 2.22-5.14t-1.11-1.77a1.85 1.85 0 0 0-1.11.53 33.45 33.45 0 0 0-4.85 6 52.24 52.24 0 0 0-3.43 6 13.06 13.06 0 0 0-1.11 2.77q-.02.37.3.37zM269.81 179.85a1.65 1.65 0 0 0 .26.53 6.83 6.83 0 0 1 .74 3.59q0 2.43-2.51 6.3a30.6 30.6 0 0 1-5.8 6.7q-3.3 2.82-5.41 2.82-2.64 0-3.32-4.75 0-6.54 9.55-17.3l28.75-32.55a1.46 1.46 0 0 1 1.58-1.05 4.73 4.73 0 0 1 2.58.47 1.39 1.39 0 0 1 .63 1.13 3.62 3.62 0 0 1-1.11 1.93l-25.75 28.12s.15.05.34.05a1.36 1.36 0 0 0 .61-.16 154.3 154.3 0 0 0 19.2-12.24 1.1 1.1 0 0 1 .47.9 1.38 1.38 0 0 1-.5 1l-1.4 1.35q-.9.87-3.48 3.17t-5 4.17a49.87 49.87 0 0 1-5.36 3.61 18.24 18.24 0 0 1-5.07 2.21zm-12.4 15.3q1.37 0 4.11-2.69a36.57 36.57 0 0 0 5-6.07q2.21-3.38 2.22-5.14t-1.11-1.77a1.85 1.85 0 0 0-1.11.53 33.4 33.4 0 0 0-4.85 6 52.24 52.24 0 0 0-3.43 6 13 13 0 0 0-1.11 2.77q-.03.37.28.37zM291.5 174.05a2.72 2.72 0 0 0-.42 1.32q0 .58.63.58a4.54 4.54 0 0 0 1.27-.32 146.11 146.11 0 0 0 19.31-12.19 1.1 1.1 0 0 1 .48.9 1.36 1.36 0 0 1-.53 1l-1.5 1.37q-1 .9-3.72 3.22t-5.12 4.22q-6.23 5-9.18 5.91a7.68 7.68 0 0 1-2.06.26q-4.06 0-4.06-4.33a10.81 10.81 0 0 1 1.85-4.83 44.73 44.73 0 0 1 3.8-5.54 11.43 11.43 0 0 1 2.58-2.66 3.87 3.87 0 0 1 2.06-.58 5.4 5.4 0 0 1 2.11.42.48.48 0 0 1 .32.42q0 .26-.5.79l-1.53 1.64q-1 1.11-3.06 3.82a19.58 19.58 0 0 0-2.73 4.58zm12.66-20.79a.84.84 0 0 1 .69.21 2.61 2.61 0 0 1 .74 1.45 1.47 1.47 0 0 1-.32.95q-.32.4-.77.9a9.76 9.76 0 0 1-1.79 1.37 4.81 4.81 0 0 1-2.61.87 1 1 0 0 1-.95-1.16 4.11 4.11 0 0 1 1.9-3.09 5.61 5.61 0 0 1 3.11-1.5zM314.34 175.9q1.74 0 6.89-3.11t9.36-6.23l4.27-3.11a1.1 1.1 0 0 1 .47.9 1.36 1.36 0 0 1-.53 1l-1.5 1.37q-1 .9-3.72 3.22t-5.12 4.22q-6.22 5-9.18 5.91a7.28 7.28 0 0 1-2 .26 6.26 6.26 0 0 1-1.58-.16 3.77 3.77 0 0 1-1.27-.69q-1.37-1.16-1.37-5.17a10 10 0 0 1 .95-3.38 32.74 32.74 0 0 1 3.14-5.49 58.55 58.55 0 0 1 5.12-6.44 46.72 46.72 0 0 1 7.44-6.44 44.47 44.47 0 0 1 9.63-5.22 4.57 4.57 0 0 1 1.42-.26 1.58 1.58 0 0 1 1.16.55 3.32 3.32 0 0 1 .74 1.13l.26.53q0 1.21-3.75 5.33a66.68 66.68 0 0 1-8.89 8.15q-5 3.88-9.36 6.62-3.54 2.32-3.53 4.85.05 1.66.95 1.66zm4.75-10.9q1.32 0 8-6.49t6.67-7.23l-.05-.11-.9.42a57.49 57.49 0 0 0-7.31 6.12 54 54 0 0 0-6.31 6.75.78.78 0 0 0-.21.4c.02.07.02.14.11.14zM336.08 174.05a2.72 2.72 0 0 0-.42 1.32q0 .58.63.58a4.54 4.54 0 0 0 1.27-.32 146.11 146.11 0 0 0 19.31-12.19 1.1 1.1 0 0 1 .48.9 1.36 1.36 0 0 1-.53 1l-1.5 1.37q-1 .9-3.72 3.22t-5.12 4.22q-6.23 5-9.18 5.91a7.68 7.68 0 0 1-2.06.26q-4.06 0-4.06-4.33a10.81 10.81 0 0 1 1.85-4.83 44.73 44.73 0 0 1 3.8-5.54 11.43 11.43 0 0 1 2.57-2.62 3.87 3.87 0 0 1 2.06-.58 5.4 5.4 0 0 1 2.11.42.48.48 0 0 1 .32.42q0 .26-.5.79l-1.53 1.64q-1 1.11-3.06 3.82a19.58 19.58 0 0 0-2.72 4.54zm12.66-20.79a.84.84 0 0 1 .69.21 2.61 2.61 0 0 1 .74 1.45 1.47 1.47 0 0 1-.32.95q-.32.4-.77.9a9.76 9.76 0 0 1-1.79 1.37 4.81 4.81 0 0 1-2.61.87 1 1 0 0 1-.95-1.16 4.11 4.11 0 0 1 1.9-3.09 5.61 5.61 0 0 1 3.11-1.5zM361 177.16l.42-3.38c0-.11 0-.16-.08-.16s-.15.07-.29.21q-.69.74-1.74 1.82a28.54 28.54 0 0 1-3.61 2.9 8 8 0 0 1-4.14 1.82 5.84 5.84 0 0 1-.66-.18 2.84 2.84 0 0 1-1-.87 3.15 3.15 0 0 1-.63-2.11q0-1.37 2.08-4.19a41 41 0 0 1 5-5.54 33.39 33.39 0 0 1 6.46-4.72 13.11 13.11 0 0 1 6.2-2q1 .05 1.58 1.42a1.46 1.46 0 0 1 .95-.53 1.56 1.56 0 0 1 1 .63 1.27 1.27 0 0 1 .63.34 1.06 1.06 0 0 1 .32.82 1.7 1.7 0 0 1-.74 1.16q-1.11 1.37-2.58 3.11l-2.17 2.52q-.63.76-1.32 1.71a6.22 6.22 0 0 0-1.27 2.64q5.38-2.58 16.93-11.13a1.1 1.1 0 0 1 .47.9 1.15 1.15 0 0 1-.42.9l-1 .9-2.4 2.06-3.45 2.93q-1.66 1.4-3.8 3.11t-3.83 2.93q-4.06 2.9-5.06 2.9a1.58 1.58 0 0 1-1.42-.63 4.35 4.35 0 0 1-.43-2.29zm-5.38-2.22q.63 0 3.88-2.58t6.15-5.17l3-2.58c.14-.14.21-.24.21-.29s-.05-.08-.16-.08q-2 0-5.22 2.3a35.43 35.43 0 0 0-5.57 4.85q-2.35 2.56-2.35 3.46a.09.09 0 0 0 .09.1zM402 155l2.69-.05q5.22 0 7.6 1.48 1.16.37 1.16.95 0 .42-1 .58t-7.12.82q-6.09.66-8.36.76-1 .05-4.62 3.48a73 73 0 0 0-6.88 7.54q-3.27 4.11-3.27 5.75a.54.54 0 0 0 .26.45 1.12 1.12 0 0 0 .66.18 4 4 0 0 0 1.24-.32 219.62 219.62 0 0 0 19.47-12.93 1.1 1.1 0 0 1 .48.9 1.44 1.44 0 0 1-.53 1l-1.56 1.45q-1 .95-3.83 3.43t-5.28 4.43q-6.65 5.38-9.29 6.23a8.43 8.43 0 0 1-2.24.26 3.08 3.08 0 0 1-2.37-1.32 5.49 5.49 0 0 1-1.08-3.59q0-2.27 2.93-6.54a48.93 48.93 0 0 1 8-8.76q.48-.37.48-.69t-1.11-.32l-3.32.11q-7 0-7.23-1.58-1.64-.32-1.64-.95a.22.22 0 0 1 .21-.24l.37-.05.53-.08 5.83-.84q5.46-.79 12.42-1.32l3.64-4.85q.32-.63 2.22-.63t1.9.79a2.37 2.37 0 0 1-.42.95l-1.32 1.85a8 8 0 0 0-.32 1.27q-.02.4.7.4zM405 180.33q-4.06 0-4.06-5a11 11 0 0 1 2.72-6.62 23.47 23.47 0 0 1 6.41-5.75 13 13 0 0 1 6.54-2.24 3.4 3.4 0 0 1 2.35 1 2.78 2.78 0 0 1 1.08 2q0 1.74-2.48 3.93a23.84 23.84 0 0 1-5.2 3.53 11.1 11.1 0 0 1-3.59 1.35 1.38 1.38 0 0 1-1.29-.79 1 1 0 0 0-.58-.16q-.37 0-1.21 1.4a4.77 4.77 0 0 0-.84 2.27 1 1 0 0 0 .63 1.08 19.62 19.62 0 0 0 8.7-2.35 106.84 106.84 0 0 0 13-8.26l1.77-1.27 1.4-1a1.1 1.1 0 0 1 .47.9 1.25 1.25 0 0 1-.47.95 75.1 75.1 0 0 1-6.83 5.91 68.38 68.38 0 0 1-9.63 6.2q-5.43 2.92-8.89 2.92zm11.24-16.88q-1.37 0-4.64 2.82t-3.27 3.46c0 .07.05.11.16.11q1.16 0 4.62-2.59t3.46-3.54c.01-.18-.09-.26-.3-.26zM489.38 164.95a1.64 1.64 0 0 1-.59 1.09l-8.22 8 1.95 11.33a3.52 3.52 0 0 1 0 .45 1.34 1.34 0 0 1-.24.8.8.8 0 0 1-.69.33 1.84 1.84 0 0 1-.91-.27l-10.17-5.35-10.17 5.35a1.93 1.93 0 0 1-.91.27.82.82 0 0 1-.71-.33 1.33 1.33 0 0 1-.24-.8 3.53 3.53 0 0 1 0-.45l1.95-11.33-8.25-8a1.72 1.72 0 0 1-.57-1.09q0-.84 1.27-1l11.37-1.65 5.1-10.31q.43-.93 1.11-.93t1.11.93l5.1 10.31 11.37 1.65q1.34.16 1.34 1zM0 0v166.91l52.56 32.67 53.27-32.67v-166.91zm100.15 163.63l-47.55 29.37-46.92-29.2v-157.8h94.47zM221 17.62h-3.79l-2.13-8.25q-.12-.44-.4-1.82t-.33-1.85q-.06.58-.32 1.86t-.4 1.83l-2.12 8.23h-3.78l-4-15.71h3.27l2 8.57q.53 2.37.76 4.11.06-.61.3-1.9t.43-2l2.29-8.8h3.15l2.29 8.8q.15.59.38 1.8t.34 2.08q.11-.84.34-2.09t.43-2l2-8.57h3.29zM236 17.62h-9v-15.71h9v2.73h-5.71v3.45h5.32v2.73h-5.32v4h5.71zM239.28 17.62v-15.71h3.33v13h6.39v2.75zM258.38 4.46a3.39 3.39 0 0 0-2.91 1.41 6.57 6.57 0 0 0-1 3.94q0 5.25 3.94 5.25a12.46 12.46 0 0 0 4-.83v2.77a11.13 11.13 0 0 1-4.32.81 6.59 6.59 0 0 1-5.24-2.08 8.81 8.81 0 0 1-1.82-6 9.74 9.74 0 0 1 .89-4.29 6.44 6.44 0 0 1 2.56-2.83 7.58 7.58 0 0 1 3.92-1 10.57 10.57 0 0 1 4.6 1.18l-1.1 2.71a17.8 17.8 0 0 0-1.77-.73 5.29 5.29 0 0 0-1.75-.31zM280 9.74a8.52 8.52 0 0 1-1.93 6 8.38 8.38 0 0 1-11.09 0 8.55 8.55 0 0 1-1.93-6 8.44 8.44 0 0 1 1.94-6 7.25 7.25 0 0 1 5.56-2.07 7.15 7.15 0 0 1 5.54 2.08 8.55 8.55 0 0 1 1.91 5.99zm-11.46 0a6.56 6.56 0 0 0 1 4 3.5 3.5 0 0 0 3 1.33q4 0 4-5.3t-4-5.31a3.52 3.52 0 0 0-3 1.34 6.54 6.54 0 0 0-1.02 3.94zM289.88 17.62l-3.78-12.32h-.1q.2 3.76.2 5v7.3h-3v-15.69h4.53l3.72 12h.06l3.94-12h4.55v15.71h-3.1v-7.44q0-.53 0-1.21t.15-3.65h-.05l-4 12.3zM313 17.62h-9v-15.71h9v2.73h-5.71v3.45h5.32v2.73h-5.32v4h5.71zM328.07 17.62h-3.33v-12.94h-4.26v-2.77h11.86v2.77h-4.26zM349 9.74a8.52 8.52 0 0 1-1.93 6 8.38 8.38 0 0 1-11.09 0 8.55 8.55 0 0 1-1.93-6 8.44 8.44 0 0 1 1.94-6 7.25 7.25 0 0 1 5.56-2.07 7.15 7.15 0 0 1 5.54 2.08 8.55 8.55 0 0 1 1.91 5.99zm-11.46 0a6.56 6.56 0 0 0 1 4 3.5 3.5 0 0 0 3 1.33q4 0 4-5.3t-4-5.31a3.52 3.52 0 0 0-3 1.34 6.54 6.54 0 0 0-.99 3.94z"/></g></svg>